# xmcd
#
# Track frame offsets:
#	150
#	19694
#	34838
#	51214
#	71894
#	94526
#	113654
#	132014
#
# Disc length: 1975 seconds
#
# Revision: 0
# Processed by: cddbd v1.5.2PL0 Copyright (c) Steve Scherf et al.
# Submitted via: audiograbber 1.83.01
#
DISCID=6307b508
DTITLE=Paul Tilley - Lucky #7
DYEAR=1900
DGENRE=
TTITLE0=Must Be Doing Something Right
TTITLE1=Use To The Pain
TTITLE2=Your Man
TTITLE3=Come  A Little Closer
TTITLE4=Turn ThePage
TTITLE5=Making Memories Of Us
TTITLE6=Revenge Of A Middle Aged Woman
TTITLE7=Nothing On But The Radio
EXTD=
EXTT0=
EXTT1=
EXTT2=
EXTT3=
EXTT4=
EXTT5=
EXTT6=
EXTT7=
PLAYORDER=
